<svg width="1200" height="700" viewBox="0 0 1200 700" fill="none" xmlns="http://www.w3.org/2000/svg">
  <rect width="1200" height="700" rx="24" fill="#0F172A"/>
  <rect x="80" y="80" width="1040" height="540" rx="22" fill="#111827"/>
  <rect x="150" y="140" width="900" height="420" rx="18" fill="#1E293B"/>
  <rect x="220" y="210" width="42" height="42" rx="10" stroke="#38BDF8" stroke-width="8"/>
  <path d="M228 230L238 241L257 220" stroke="#38BDF8" stroke-width="8" stroke-linecap="round" stroke-linejoin="round"/>
  <rect x="290" y="210" width="680" height="42" rx="10" fill="#334155"/>
  <rect x="220" y="290" width="42" height="42" rx="10" stroke="#38BDF8" stroke-width="8"/>
  <path d="M228 311L238 322L257 301" stroke="#38BDF8" stroke-width="8" stroke-linecap="round" stroke-linejoin="round"/>
  <rect x="290" y="290" width="680" height="42" rx="10" fill="#334155"/>
  <rect x="220" y="370" width="42" height="42" rx="10" stroke="#38BDF8" stroke-width="8"/>
  <path d="M228 391L238 402L257 381" stroke="#38BDF8" stroke-width="8" stroke-linecap="round" stroke-linejoin="round"/>
  <rect x="290" y="370" width="680" height="42" rx="10" fill="#334155"/>
  <text x="150" y="610" fill="#CBD5E1" font-size="42" font-family="Arial, sans-serif" font-weight="700">Checklist de Manutenção</text>
</svg>
